<svg style="position: absolute; width: 0; height: 0;" width="0" height="0" version="1.1" xmlns="http://www.w3.org/2000/svg" xmlns:xlink="http://www.w3.org/1999/xlink">

	<symbol id="right_arrow"  viewBox="0 0 47 47" >
		<g>
			<path d="M23.5,47C10.5,47,0,36.5,0,23.5S10.5,0,23.5,0S47,10.5,47,23.5S36.5,47,23.5,47z M23.5,1C11.1,1,1,11.1,1,23.5
				C1,35.9,11.1,46,23.5,46C35.9,46,46,35.9,46,23.5C46,11.1,35.9,1,23.5,1z"/>
		</g>
		<g>
			<polygon style="fill-rule:evenodd;clip-rule:evenodd;" points="29.5,23.1 26.1,19.8 26.1,22.5 17,22.5 17,23.7 26.1,23.7 
				26.1,26.5 			"/>
		</g>
	</symbol>

	<symbol id="left_arrow"  viewBox="0 0 47 47" >
		<g>
			<path d="M23.5,0C36.5,0,47,10.5,47,23.5S36.5,47,23.5,47S0,36.5,0,23.5S10.5,0,23.5,0z M23.5,46C35.9,46,46,35.9,46,23.5
				C46,11.1,35.9,1,23.5,1C11.1,1,1,11.1,1,23.5C1,35.9,11.1,46,23.5,46z"/>
		</g>
		<g>
			<polygon class="st0" points="17.5,23.9 20.9,27.2 20.9,24.5 30,24.5 30,23.3 20.9,23.3 20.9,20.5 			"/>
		</g>
	</symbol>



</svg>